<?xml version="1.0" encoding="utf-8"?>
<!-- Generator: Adobe Illustrator 18.0.0, SVG Export Plug-In . SVG Version: 6.00 Build 0)  -->
<!DOCTYPE svg PUBLIC "-//W3C//DTD SVG 1.1//EN" "http://www.w3.org/Graphics/SVG/1.1/DTD/svg11.dtd">
<svg version="1.1" id="图层_1" xmlns="http://www.w3.org/2000/svg" xmlns:xlink="http://www.w3.org/1999/xlink" x="0px" y="0px"
	 viewBox="0 0 36 36" enable-background="new 0 0 36 36" xml:space="preserve">
<g>
	<circle fill="#D3D3D3" stroke="#FFFFFF" stroke-width="1.1333" stroke-miterlimit="10" cx="18" cy="18" r="17"/>
</g>
<g>
	<path fill="#FFFFFF" d="M17.9,21.7c-0.3,0-0.6-0.1-0.8-0.3c-0.2-0.2-0.3-0.5-0.3-0.9c0-0.2,0-0.5,0.1-0.8c0.1-0.3,0.2-0.6,0.4-1
		c0.2-0.3,0.3-0.7,0.6-1c0.2-0.3,0.5-0.7,0.8-0.9c0.2-0.2,0.4-0.4,0.6-0.6c0.2-0.2,0.3-0.4,0.4-0.5s0.2-0.4,0.2-0.5
		c0-0.2,0.1-0.4,0.1-0.6c0-0.5-0.1-0.9-0.4-1.1c-0.3-0.2-0.6-0.3-1.1-0.3c-0.4,0-0.8,0.1-1.1,0.2c-0.3,0.2-0.5,0.4-0.5,0.7
		c0,0.2,0,0.3-0.1,0.4c-0.1,0.1-0.2,0.2-0.3,0.3c-0.1,0.1-0.3,0.2-0.4,0.2c-0.2,0-0.3,0.1-0.5,0.1c-0.4,0-0.7-0.1-0.8-0.3
		c-0.2-0.2-0.2-0.4-0.2-0.7c0-0.4,0.1-0.9,0.3-1.2c0.2-0.4,0.5-0.7,0.9-1c0.4-0.3,0.8-0.5,1.3-0.6c0.5-0.2,1-0.2,1.6-0.2
		c0.6,0,1.1,0.1,1.5,0.2c0.5,0.2,0.9,0.4,1.2,0.7c0.3,0.3,0.6,0.7,0.8,1.1c0.2,0.4,0.3,1,0.3,1.5c0,0.5-0.1,1-0.3,1.4
		c-0.2,0.5-0.6,0.9-1.1,1.5c-0.4,0.4-0.7,0.7-0.9,0.9c-0.2,0.3-0.4,0.5-0.5,0.7c-0.1,0.2-0.2,0.4-0.2,0.6c0,0.2,0,0.4,0,0.7
		c0,0.4-0.1,0.6-0.3,0.8C18.5,21.6,18.2,21.7,17.9,21.7z M17.9,25.8c0.4,0,0.7-0.1,0.9-0.4c0.2-0.2,0.4-0.6,0.4-0.9
		c0-0.4-0.1-0.7-0.4-0.9c-0.2-0.2-0.6-0.4-0.9-0.4c-0.4,0-0.7,0.1-0.9,0.4c-0.2,0.2-0.4,0.6-0.4,0.9c0,0.4,0.1,0.7,0.4,0.9
		C17.2,25.7,17.5,25.8,17.9,25.8z"/>
</g>
</svg>
