<?xml version="1.0" encoding="utf-8"?>
<!-- Generator: Adobe Illustrator 18.0.0, SVG Export Plug-In . SVG Version: 6.00 Build 0)  -->
<!DOCTYPE svg PUBLIC "-//W3C//DTD SVG 1.1//EN" "http://www.w3.org/Graphics/SVG/1.1/DTD/svg11.dtd">
<svg version="1.1" id="图层_1" xmlns="http://www.w3.org/2000/svg" xmlns:xlink="http://www.w3.org/1999/xlink" x="0px" y="0px"
	 viewBox="0 0 64 64" enable-background="new 0 0 64 64" xml:space="preserve">
<g>
	<g>
		<g>
			<path fill="#EDD4AB" d="M32,63C14.9,63,1,49.1,1,32C1,14.9,14.9,1,32,1s31,13.9,31,31C63,49.1,49.1,63,32,63z"/>
		</g>
		<g>
			<g>
				<path fill="#754C24" d="M32,2c16.6,0,30,13.4,30,30c0,16.6-13.4,30-30,30S2,48.6,2,32C2,15.4,15.4,2,32,2 M32,0
					C14.4,0,0,14.4,0,32c0,17.6,14.4,32,32,32s32-14.4,32-32C64,14.4,49.6,0,32,0L32,0z"/>
			</g>
		</g>
	</g>
	<g>
		<defs>
			<circle id="SVGID_17_" cx="32" cy="32" r="30"/>
		</defs>
		<clipPath id="SVGID_2_">
			<use xlink:href="#SVGID_17_"  overflow="visible"/>
		</clipPath>
		<g clip-path="url(#SVGID_2_)">
			<g>
				<path fill="#FCD221" d="M43.3,41.1c1.3-2.2,2-4.9,2-7.7c0-6.7-4.1-12.3-9.8-14c0.3-0.3,0.5-0.6,0.8-1c1-1.6,1.5-4.1,0.3-4.6
					c-1.5-0.6-3.3,2.7-3.3,2.7s1.5-7-1.1-7.1c-2.9-0.1-1.5,7.1-1.5,7.1s-2.2-3.1-3.3-2.5c-1,0.5-0.8,2.5,0,4.5
					c0.2,0.4,0.4,0.7,0.6,1.1c-5.4,1.8-9.4,7.4-9.4,13.9c0,2.7,0.7,5.2,1.9,7.4c-6.2,3.8-10.3,10.6-10.3,18.4
					c0,11.9,9.6,21.5,21.5,21.5c11.9,0,21.5-9.6,21.5-21.5C53.2,51.6,49.3,45,43.3,41.1z"/>
				<path fill="#8C6239" d="M31.7,81.7c-12.4,0-22.5-10.1-22.5-22.5c0-7.6,3.7-14.5,10-18.7c-1-2.2-1.6-4.6-1.6-7.1
					c0-6.4,3.5-12,8.9-14.4c0-0.1,0-0.1-0.1-0.2c-1.2-2.8-1-5,0.5-5.7c0.2-0.1,0.5-0.2,0.8-0.2c0.6,0,1.1,0.3,1.7,0.7
					c-0.1-1.6,0.1-3.4,0.9-4.4c0.5-0.6,1.1-0.9,1.8-0.9l0.1,0c0.7,0,1.2,0.3,1.7,0.9c0.7,0.9,0.9,2.5,0.8,4c0.4-0.3,0.9-0.5,1.5-0.5
					c0.3,0,0.5,0.1,0.8,0.2c0.6,0.3,1,0.7,1.2,1.4c0.4,1.4-0.2,3.4-1,4.7c5.5,2.3,9.2,8,9.2,14.5c0,2.6-0.6,5.1-1.7,7.4
					c6,4.2,9.6,11,9.6,18.4C54.2,71.6,44.1,81.7,31.7,81.7z M27.8,15c-0.2,0.3-0.2,1.3,0.5,3.1c0.1,0.3,0.3,0.6,0.5,0.9
					c0.2,0.3,0.2,0.6,0.1,0.9c-0.1,0.3-0.3,0.5-0.6,0.6c-5.2,1.8-8.7,7-8.7,12.9c0,2.4,0.6,4.8,1.7,6.9c0.3,0.5,0.1,1.1-0.4,1.3
					c-6.2,3.8-9.8,10.3-9.8,17.5c0,11.3,9.2,20.5,20.5,20.5c11.3,0,20.5-9.2,20.5-20.5c0-7-3.5-13.4-9.4-17.2
					c-0.4-0.3-0.6-0.9-0.3-1.3c1.2-2.2,1.9-4.6,1.9-7.2c0-6.1-3.7-11.4-9.1-13c-0.3-0.1-0.6-0.4-0.7-0.7c-0.1-0.3,0-0.7,0.2-0.9
					c0.3-0.3,0.5-0.6,0.7-0.9c0.7-1.1,1-2.4,0.8-3c0-0.1-0.1-0.1-0.1-0.2c-0.4,0-1.4,1.1-2,2.2c-0.2,0.4-0.8,0.6-1.2,0.5
					c-0.5-0.2-0.7-0.7-0.6-1.1c0.4-1.8,0.7-4.9,0-5.8c-0.1-0.1-0.1-0.1-0.2-0.1c-0.1,0-0.2,0-0.3,0.1c-0.7,0.9-0.5,4-0.1,5.8
					c0.1,0.5-0.2,0.9-0.6,1.1c-0.4,0.2-0.9,0-1.2-0.4C29.3,16.1,28.3,15.2,27.8,15z"/>
			</g>
			<g>
				<path fill="#F15A24" d="M35.7,19.5c0.3-0.3,0.5-0.6,0.8-1c1-1.6,1.5-4.1,0.3-4.6c-1.5-0.6-3.3,2.7-3.3,2.7s1.5-7-1.1-7.1
					c-2.9-0.1-1.5,7.1-1.5,7.1s-2.2-3.1-3.3-2.5c-1,0.5-0.8,2.5,0,4.5c0.2,0.4,0.4,0.7,0.6,1.1c0,0,1.6,1,3.7,1
					C34.1,20.6,35.7,19.5,35.7,19.5z"/>
			</g>
			<g>
				<path fill="#8C6239" d="M28.2,20.6c-0.3,0-0.6-0.1-0.8-0.4c-0.3-0.4-0.5-0.8-0.7-1.2c-1.2-2.8-1-5,0.5-5.7
					c0.8-0.4,1.7-0.1,2.5,0.5c-0.1-1.6,0.1-3.4,1-4.4c0.5-0.6,1.1-0.8,1.9-0.8c0.7,0,1.2,0.3,1.7,0.9c0.7,0.9,0.9,2.5,0.8,4
					c0.7-0.5,1.4-0.7,2.2-0.3c0.6,0.3,1,0.7,1.2,1.4c0.4,1.5-0.2,3.4-1,4.7c-0.2,0.4-0.5,0.7-0.8,1.1c-0.4,0.4-1,0.5-1.4,0.1
					c-0.4-0.4-0.5-1-0.1-1.4c0.3-0.3,0.5-0.6,0.7-0.9c0.7-1.1,1-2.4,0.8-3c0-0.1-0.1-0.1-0.1-0.2c-0.3,0-1.3,1-2,2.2
					c-0.2,0.4-0.8,0.6-1.2,0.5c-0.5-0.2-0.7-0.7-0.6-1.1c0.4-1.8,0.7-4.9,0-5.8c-0.1-0.1-0.1-0.1-0.2-0.1c-0.1,0-0.2,0-0.3,0.1
					c-0.7,0.8-0.5,4-0.2,5.8c0.1,0.5-0.2,0.9-0.6,1.1c-0.4,0.2-0.9,0-1.2-0.4c-0.7-1-1.7-2-2.1-2.1c-0.2,0.3-0.2,1.3,0.5,3.1
					c0.1,0.3,0.3,0.6,0.5,0.9c0.3,0.5,0.2,1.1-0.2,1.4C28.6,20.5,28.4,20.6,28.2,20.6z"/>
			</g>
			<g>
				<path fill="#FFFFFF" d="M31.6,27.4c0,4.3-2.6,8.2-5.6,8.2c-3,0-5.5-3.5-5.5-7.7c0-4.3,2.5-7.7,5.5-7.7
					C30.7,20.2,31.6,23.2,31.6,27.4z"/>
				<path fill="#FFFFFF" d="M26,36.4c-3.4,0-6.3-3.8-6.3-8.5c0-4.7,2.8-8.5,6.3-8.5c5.6,0,6.4,4.1,6.4,8
					C32.4,32.2,29.4,36.4,26,36.4z M26,20.9c-2.6,0-4.8,3.1-4.8,7c0,3.9,2.1,7,4.8,7c2.6,0,4.9-3.5,4.9-7.4
					C30.9,22.6,29.6,20.9,26,20.9z"/>
			</g>
			<g>
				<path fill="#FFFFFF" d="M31.8,27.4c0,4.3,2.6,8.2,5.6,8.2c3,0,5.5-3.5,5.5-7.7c0-4.3-2.5-7.7-5.5-7.7
					C32.8,20.2,31.8,23.2,31.8,27.4z"/>
				<path fill="#FFFFFF" d="M37.5,36.4c-3.4,0-6.4-4.2-6.4-8.9c0-4,0.8-8,6.4-8c3.4,0,6.2,3.8,6.2,8.5
					C43.7,32.6,40.9,36.4,37.5,36.4z M37.5,20.9c-3.6,0-4.9,1.7-4.9,6.5c0,3.9,2.3,7.4,4.9,7.4c2.6,0,4.8-3.1,4.8-7
					C42.2,24,40.1,20.9,37.5,20.9z"/>
			</g>
			<g>
				<ellipse fill="#754C24" cx="26.5" cy="26" rx="1.5" ry="2.2"/>
				<path fill="#754C24" d="M26.5,28.7c-1.1,0-2-1.2-2-2.7c0-1.5,0.9-2.7,2-2.7s2,1.2,2,2.7C28.5,27.5,27.6,28.7,26.5,28.7z
					 M26.5,24.3c-0.5,0-1,0.7-1,1.7c0,1,0.5,1.7,1,1.7c0.5,0,1-0.7,1-1.7C27.5,25,27,24.3,26.5,24.3z"/>
			</g>
			<g>
				<ellipse fill="#754C24" cx="36.7" cy="26" rx="1.5" ry="2.2"/>
				<path fill="#754C24" d="M36.7,28.7c-1.1,0-2-1.2-2-2.7c0-1.5,0.9-2.7,2-2.7c1.1,0,2,1.2,2,2.7C38.7,27.5,37.8,28.7,36.7,28.7z
					 M36.7,24.3c-0.5,0-1,0.7-1,1.7c0,1,0.5,1.7,1,1.7c0.5,0,1-0.7,1-1.7C37.7,25,37.2,24.3,36.7,24.3z"/>
			</g>
			<g>
				<path fill="#F7931E" d="M30.1,46c-1.7,0.8-5,8.5-1.7,9.1c2.6,0.5,3.3-4.8,3.4-6.7"/>
				<path fill="#F7931E" d="M28.8,55.7c-0.1,0-0.3,0-0.4,0c-1-0.2-1.6-0.9-1.8-2c-0.4-2.6,1.8-7.3,3.3-8c0.2-0.1,0.5,0,0.7,0.2
					c0.1,0.2,0,0.5-0.2,0.7c-1,0.5-3.1,4.7-2.8,7c0.1,0.9,0.6,1.1,1,1.2c0.4,0.1,0.7,0,1-0.2c1.3-1,1.7-4.3,1.8-6
					c0-0.3,0.2-0.5,0.5-0.5c0.3,0,0.5,0.2,0.5,0.5c0,0.5-0.3,5.2-2.2,6.7C29.7,55.5,29.3,55.7,28.8,55.7z"/>
			</g>
			<g>
				<path fill="#F7931E" d="M33.5,46c1.7,0.8,5.1,8.8,1.7,9.1c-2.5,0.3-3.3-4.8-3.4-6.7"/>
				<path fill="#F7931E" d="M35,55.7c-0.5,0-1-0.2-1.5-0.6c-2-1.7-2.2-6.6-2.2-6.6c0-0.3,0.2-0.5,0.5-0.5c0.3,0,0.5,0.2,0.5,0.5
					c0.1,1.7,0.7,4.8,1.9,5.9c0.3,0.3,0.6,0.4,1,0.3c0.4,0,0.8-0.2,0.9-1c0.4-2.3-1.8-6.7-2.8-7.2c-0.2-0.1-0.3-0.4-0.2-0.7
					c0.1-0.2,0.4-0.3,0.7-0.2c1.6,0.8,3.8,5.8,3.3,8.3c-0.2,1.1-0.8,1.7-1.8,1.8C35.2,55.7,35.1,55.7,35,55.7z"/>
			</g>
			<g>
				<ellipse fill="#F15A24" cx="31.8" cy="39.6" rx="4.7" ry="8.9"/>
				<path fill="#F15A24" d="M31.8,49c-2.9,0-5.2-4.1-5.2-9.4c0-5.3,2.3-9.4,5.2-9.4c2.9,0,5.2,4.1,5.2,9.4C37,44.9,34.7,49,31.8,49z
					 M31.8,31.2c-2.3,0-4.2,3.9-4.2,8.4c0,4.6,1.9,8.4,4.2,8.4c2.2,0,4.2-3.9,4.2-8.4C36,35,34.1,31.2,31.8,31.2z"/>
			</g>
			<g>
				<path fill="#FCB421" d="M34.8,39.9c0,3.4-1.2,6.1-3,6.1c-1.8,0-3-2.7-3-6.1c0-3.4,1.2-6.1,3-6.1C33.6,33.8,34.8,36.5,34.8,39.9z
					"/>
				<path fill="#ED1C24" d="M31.8,46.2c-1.9,0-3.2-2.7-3.2-6.3c0-3.7,1.4-6.3,3.2-6.3c1.9,0,3.2,2.7,3.2,6.3
					C35.1,43.5,33.7,46.2,31.8,46.2z M31.8,34c-1.5,0-2.7,2.6-2.7,5.8c0,3.3,1.2,5.8,2.7,5.8c1.5,0,2.7-2.6,2.7-5.8
					C34.6,36.6,33.4,34,31.8,34z"/>
			</g>
		</g>
	</g>
</g>
</svg>
