<?xml version="1.0" encoding="utf-8"?>
<!-- Generator: Adobe Illustrator 18.0.0, SVG Export Plug-In . SVG Version: 6.00 Build 0)  -->
<!DOCTYPE svg PUBLIC "-//W3C//DTD SVG 1.1//EN" "http://www.w3.org/Graphics/SVG/1.1/DTD/svg11.dtd">
<svg version="1.1" id="图层_1" xmlns="http://www.w3.org/2000/svg" xmlns:xlink="http://www.w3.org/1999/xlink" x="0px" y="0px"
	 viewBox="0 0 64 64" enable-background="new 0 0 64 64" xml:space="preserve">
<g>
	<g>
		<g>
			<path fill="#CCCCCC" d="M32,63C14.9,63,1,49.1,1,32C1,14.9,14.9,1,32,1s31,13.9,31,31C63,49.1,49.1,63,32,63z"/>
		</g>
		<g>
			<path fill="#F2F2F2" d="M32,2c16.6,0,30,13.4,30,30c0,16.6-13.4,30-30,30C15.4,62,2,48.6,2,32C2,15.4,15.4,2,32,2 M32,0
				C14.4,0,0,14.4,0,32c0,17.6,14.4,32,32,32s32-14.4,32-32C64,14.4,49.6,0,32,0L32,0z"/>
		</g>
	</g>
	<g>
		<defs>
			<circle id="SVGID_19_" cx="32" cy="32" r="30"/>
		</defs>
		<clipPath id="SVGID_2_">
			<use xlink:href="#SVGID_19_"  overflow="visible"/>
		</clipPath>
		<g clip-path="url(#SVGID_2_)">
			<g>
				<path fill="#FFFFFF" d="M43.1,41c1.7-2.3,2.7-5.1,2.7-8.2C45.8,25.2,39.6,19,32,19c-7.6,0-13.8,6.2-13.8,13.8
					c0,3.1,1,5.9,2.7,8.2c-7.7,4-13,12.1-13,21.3c0,13.3,10.8,24.1,24.1,24.1c13.3,0,24.1-10.8,24.1-24.1
					C56.1,53.1,50.8,45.1,43.1,41z"/>
				<path fill="#999999" d="M32,87.5c-13.8,0-25.1-11.2-25.1-25.1c0-9,4.8-17.2,12.5-21.7c-1.5-2.4-2.3-5.1-2.3-7.9
					C17.2,24.6,23.8,18,32,18c8.2,0,14.8,6.7,14.8,14.8c0,2.8-0.8,5.5-2.3,7.9c7.7,4.5,12.5,12.7,12.5,21.7
					C57.1,76.2,45.8,87.5,32,87.5z M32,20c-7.1,0-12.8,5.8-12.8,12.8c0,2.8,0.9,5.4,2.5,7.6c0.2,0.2,0.2,0.5,0.2,0.8
					c-0.1,0.3-0.3,0.5-0.5,0.7c-7.7,4-12.4,11.8-12.4,20.5c0,12.7,10.3,23.1,23.1,23.1c12.7,0,23.1-10.3,23.1-23.1
					c0-8.6-4.8-16.5-12.4-20.5c-0.3-0.1-0.4-0.4-0.5-0.7c-0.1-0.3,0-0.6,0.2-0.8c1.6-2.2,2.5-4.9,2.5-7.6C44.8,25.7,39.1,20,32,20z"
					/>
			</g>
			<g>
				<g>
					<path fill="#F2F2F2" d="M25.6,16.9c0.2-0.2,0.8-7.2,6.4-7.2c5.6,0,6.3,6.9,6.3,6.9"/>
					<path fill="#999999" d="M25.6,17.7c-0.2,0-0.3-0.1-0.5-0.2c-0.3-0.2-0.3-0.6-0.2-0.9c0-0.1,0-0.2,0.1-0.3
						c1.1-4.9,3.4-7.3,7-7.3c5,0,6.8,5,7,7.6c0,0.4-0.3,0.8-0.7,0.8c-0.4,0-0.8-0.3-0.8-0.7c0-0.3-0.7-6.2-5.5-6.2
						c-4.2,0-5.2,4.6-5.6,6.2c-0.1,0.4-0.1,0.6-0.3,0.8C26,17.6,25.8,17.7,25.6,17.7z"/>
				</g>
				<g>
					<path fill="#FFFFFF" d="M40,19c0,1.3-0.5,2.8-1.9,2.8H26c-1.4,0-3-1.5-3-2.8v-0.1c0-1.3,1.6-2,3-2h12.1c1.4,0,1.9,0.7,1.9,2V19
						z"/>
					<path fill="#999999" d="M38.1,21.8H26c-1.8,0-3-1.1-3-2.8v-0.1c0-1.8,1.2-3,3-3h12.1c1.8,0,2.9,1.2,2.9,3V19
						C41,20.8,39.9,21.8,38.1,21.8z M26,16.8c-1,0-2,1.1-2,2V19c0,0.9,1.1,1.8,2,1.8h12.1c0.9,0,1.9-0.9,1.9-1.8v-0.1
						c0-1-0.9-2-1.9-2H26z"/>
				</g>
				<g>
					<circle fill="#FFFFFF" cx="31.8" cy="9" r="2.4"/>
					<path fill="#999999" d="M31.8,12.1c-1.7,0-3.1-1.4-3.1-3.1s1.4-3.1,3.1-3.1c1.7,0,3.1,1.4,3.1,3.1S33.5,12.1,31.8,12.1z
						 M31.8,7.4c-0.9,0-1.6,0.7-1.6,1.6c0,0.9,0.7,1.6,1.6,1.6c0.9,0,1.6-0.7,1.6-1.6C33.4,8.1,32.7,7.4,31.8,7.4z"/>
				</g>
			</g>
			<g>
				<g>
					<circle fill="#808080" cx="28.6" cy="30.7" r="1.3"/>
				</g>
				<g>
					<circle fill="#808080" cx="34.9" cy="30.7" r="1.3"/>
				</g>
				<g>
					<path fill="#808080" d="M35.2,35.8h-7c-0.4,0-0.8-0.1-0.8-0.5c0-0.4,0.3-0.5,0.8-0.5h7c0.4,0,0.8,0.1,0.8,0.5
						C36,35.8,35.7,35.8,35.2,35.8z"/>
				</g>
			</g>
		</g>
	</g>
</g>
</svg>
