<?xml version="1.0" encoding="utf-8"?>
<!-- Generator: Adobe Illustrator 18.0.0, SVG Export Plug-In . SVG Version: 6.00 Build 0)  -->
<!DOCTYPE svg PUBLIC "-//W3C//DTD SVG 1.1//EN" "http://www.w3.org/Graphics/SVG/1.1/DTD/svg11.dtd">
<svg version="1.1" id="图层_1" xmlns="http://www.w3.org/2000/svg" xmlns:xlink="http://www.w3.org/1999/xlink" x="0px" y="0px"
	 viewBox="0 0 64 64" enable-background="new 0 0 64 64" xml:space="preserve">
<g>
	<g>
		<g>
			<path fill="#CCCCCC" d="M32,63C14.9,63,1,49.1,1,32C1,14.9,14.9,1,32,1s31,13.9,31,31C63,49.1,49.1,63,32,63z"/>
		</g>
		<g>
			<g>
				<path fill="#F2F2F2" d="M32,2c16.6,0,30,13.4,30,30c0,16.6-13.4,30-30,30C15.4,62,2,48.6,2,32C2,15.4,15.4,2,32,2 M32,0
					C14.4,0,0,14.4,0,32c0,17.6,14.4,32,32,32s32-14.4,32-32C64,14.4,49.6,0,32,0L32,0z"/>
			</g>
		</g>
	</g>
	<g>
		<defs>
			<circle id="SVGID_21_" cx="32" cy="32" r="30"/>
		</defs>
		<clipPath id="SVGID_2_">
			<use xlink:href="#SVGID_21_"  overflow="visible"/>
		</clipPath>
		<g clip-path="url(#SVGID_2_)">
			<g>
				<g>
					<g>
						<path fill="#808080" d="M26.5,21.4c-0.7,0-1-0.6-1-1.2v-9.5c0-0.7,0.3-1.2,1-1.2c0.7,0,1,0.6,1,1.2v9.5
							C27.5,20.9,27.2,21.4,26.5,21.4z"/>
					</g>
				</g>
				<g>
					<path fill="#808080" d="M26,18.9c-0.3,0-0.6-0.1-0.8-0.3l-3.6-3.1C21,15,21,14.2,21.4,13.7c0.5-0.5,1.2-0.6,1.8-0.1l3.6,3.1
						c0.5,0.5,0.6,1.2,0.1,1.8C26.7,18.7,26.3,18.9,26,18.9z"/>
				</g>
				<g>
					<path fill="#808080" d="M26.8,16c-0.4,0-0.7-0.2-1-0.4c-0.4-0.5-0.4-1.3,0.1-1.8l3.3-2.8c0.5-0.4,1.3-0.4,1.8,0.1
						c0.4,0.5,0.4,1.3-0.1,1.8l-3.3,2.8C27.3,15.9,27,16,26.8,16z"/>
				</g>
			</g>
			<g>
				<g>
					<g>
						<path fill="#808080" d="M39,21.4c-0.7,0-1.5-0.6-1.5-1.2v-9.5c0-0.7,0.8-1.2,1.5-1.2c0.7,0,1.5,0.6,1.5,1.2v9.5
							C40.5,20.9,39.7,21.4,39,21.4z"/>
					</g>
				</g>
				<g>
					<path fill="#808080" d="M39.5,18.9c-0.4,0-0.7-0.1-0.9-0.4c-0.5-0.5-0.4-1.3,0.1-1.8l3.6-3.1c0.5-0.5,1.3-0.4,1.8,0.1
						c0.5,0.5,0.4,1.3-0.1,1.8l-3.6,3.1C40,18.8,39.7,18.9,39.5,18.9z"/>
				</g>
				<g>
					<path fill="#808080" d="M38.7,16c-0.3,0-0.6-0.1-0.8-0.3l-3.3-2.8c-0.5-0.4-0.6-1.2-0.1-1.8c0.4-0.5,1.2-0.6,1.8-0.1l3.3,2.8
						c0.5,0.4,0.6,1.2,0.1,1.8C39.4,15.8,39.1,16,38.7,16z"/>
				</g>
			</g>
			<g>
				<path fill="#FFFFFF" d="M46.5,45.2V33.4c0-7.9-6.1-14.2-14-14.2s-14,6.4-14,14.2v11.7c-5,3.9-7.3,9.5-7.3,15.8
					c0,11.8,9.4,21.3,21.2,21.3c11.8,0,21.2-9.5,21.2-21.3C53.6,54.7,51.5,49.1,46.5,45.2z"/>
				<path fill="#999999" d="M32.3,83.3c-12.3,0-22.1-10-22.1-22.3c0-6.3,2.3-12.1,7.3-16.3V33.4c0-8.4,6.6-15.2,15-15.2
					s15,6.8,15,15.2v11.3c5,4.1,7.1,9.8,7.1,16.3C54.6,73.3,44.7,83.3,32.3,83.3z M32.5,20.2c-7.3,0-13,5.9-13,13.2v11.7
					c0,0.3-0.3,0.6-0.5,0.8c-4.4,3.8-6.9,9.2-6.9,15.1c0,11.2,9,20.3,20.2,20.3c11.2,0,20.4-9.1,20.4-20.3c0-6-2.5-11.4-6.7-15.1
					c-0.2-0.2-0.5-0.5-0.5-0.8V33.4C45.5,26.1,39.8,20.2,32.5,20.2z"/>
			</g>
			<g>
				<g>
					<g>
						<circle fill="#FFFFFF" cx="25.7" cy="34.3" r="1"/>
					</g>
					<g>
						<path fill="#808080" d="M25.7,35.9c-0.9,0-1.6-0.7-1.6-1.6c0-0.9,0.7-1.6,1.6-1.6c0.9,0,1.7,0.7,1.7,1.6
							C27.3,35.2,26.6,35.9,25.7,35.9z"/>
					</g>
				</g>
				<g>
					<g>
						<path fill="#808080" d="M39.4,35.9c-0.9,0-1.6-0.7-1.6-1.6c0-0.9,0.7-1.6,1.6-1.6c0.9,0,1.7,0.7,1.7,1.6
							C41,35.2,40.3,35.9,39.4,35.9z"/>
					</g>
				</g>
				<g>
					<g>
						<g>
							<path fill="#808080" d="M33,38.6c-0.3,0-0.5-0.3-0.5-0.6v-2.7c0-0.3,0.2-0.6,0.5-0.6c0.3,0,0.5,0.3,0.5,0.6v2.7
								C33.5,38.3,33.3,38.6,33,38.6z"/>
						</g>
					</g>
					<g>
						<g>
							<path fill="#808080" d="M32.7,39.3c-1.5,0-2.7-0.6-3.3-1.1c-0.3-0.2-0.3-0.6-0.1-0.9c0.2-0.3,0.6-0.3,0.9-0.1
								c0.1,0.1,2.4,1.8,5.1,0c0.3-0.2,0.7-0.1,0.9,0.2c0.2,0.3,0.1,0.7-0.2,0.9C34.8,39,33.7,39.3,32.7,39.3z"/>
						</g>
					</g>
				</g>
			</g>
			<g>
				<g>
					<ellipse fill="#808080" cx="32.7" cy="34.3" rx="2.6" ry="1.8"/>
				</g>
			</g>
			<g>
				<path fill="#FFFFFF" d="M21.5,25.2c0,0-7.3,1.2-8.7,1.4c-1.4,0.2,1.3,3.8,5.3,3.8c2.4,0,3.3-1.4,3.3-1.4"/>
				<path fill="#999999" d="M18,30.8c-3.5,0-6.5-2.3-6.6-4c-0.1-0.8,0.4-1.3,1.2-1.4c1.3-0.2,8.6-1.3,8.7-1.3
					c0.5-0.1,1.1,0.3,1.1,0.9c0.1,0.5-0.3,1.1-0.8,1.2c-0.3,0-5.6,0.9-7.9,1.3c0.6,0.8,2.2,1.9,4.3,1.9c1.8,0,2.5-0.9,2.5-1
					c0.3-0.4,0.9-0.6,1.4-0.2c0.4,0.3,0.6,0.6,0.3,1.1C21.8,30,20.4,30.8,18,30.8C18,30.8,18,30.8,18,30.8z"/>
			</g>
			<g>
				<path fill="#FFFFFF" d="M43.4,25.2c0,0,7.3,1.2,8.7,1.4c1.4,0.2-1.3,3.8-5.3,3.8c-2.4,0-3.3-1.4-3.3-1.4"/>
				<path fill="#999999" d="M46.9,30.8C46.9,30.8,46.9,30.8,46.9,30.8c-2.4,0-3.8-0.9-4.2-1.6c-0.3-0.5-0.2-0.9,0.3-1.2
					c0.5-0.3,1.1-0.1,1.4,0.4c0,0,0.7,1,2.5,1c2.1,0,3.7-1.2,4.3-1.9c-2.3-0.4-7.6-1.2-7.9-1.3c-0.5-0.1-0.9-0.6-0.8-1.1
					c0.1-0.5,0.6-0.9,1.1-0.8c0.1,0,7.3,1.2,8.7,1.4c0.8,0.1,1.3,0.5,1.2,1.2C53.4,28.5,50.4,30.8,46.9,30.8z"/>
			</g>
		</g>
	</g>
</g>
</svg>
