<?xml version="1.0" encoding="utf-8"?>
<!-- Generator: Adobe Illustrator 18.0.0, SVG Export Plug-In . SVG Version: 6.00 Build 0)  -->
<!DOCTYPE svg PUBLIC "-//W3C//DTD SVG 1.1//EN" "http://www.w3.org/Graphics/SVG/1.1/DTD/svg11.dtd">
<svg version="1.1" id="图层_1" xmlns="http://www.w3.org/2000/svg" xmlns:xlink="http://www.w3.org/1999/xlink" x="0px" y="0px"
	 viewBox="0 0 120 80" enable-background="new 0 0 120 80" xml:space="preserve">
<path fill="#FFFFFF" stroke="#0093FF" stroke-width="4" stroke-miterlimit="10" d="M89.2,81c0-5.6,0.1-22.6,0.1-22.6
	c0-16.1-13-29-29-29s-29,12.9-29,29c0,0,0.1,17,0.1,22.6"/>
<g>
	<g>
		<g>
			<path fill="#0093FF" d="M55.1,63.2c0,2-1.6,3.6-3.6,3.6c-2,0-3.6-1.6-3.6-3.6c0-2,1.6-3.6,3.6-3.6C53.5,59.7,55.1,61.3,55.1,63.2
				z"/>
			<path fill="#0093FF" d="M51.5,67.3c-2.2,0-4.1-1.8-4.1-4.1c0-2.2,1.8-4.1,4.1-4.1c2.2,0,4.1,1.8,4.1,4.1
				C55.6,65.5,53.8,67.3,51.5,67.3z M51.5,60.2c-1.7,0-3.1,1.4-3.1,3.1c0,1.7,1.4,3.1,3.1,3.1c1.7,0,3.1-1.4,3.1-3.1
				C54.6,61.5,53.2,60.2,51.5,60.2z"/>
		</g>
		<g>
			<path fill="#0093FF" d="M72.3,63.2c0,2-1.6,3.6-3.6,3.6c-2,0-3.6-1.6-3.6-3.6c0-2,1.6-3.6,3.6-3.6C70.7,59.7,72.3,61.3,72.3,63.2
				z"/>
			<path fill="#0093FF" d="M68.7,67.3c-2.2,0-4.1-1.8-4.1-4.1c0-2.2,1.8-4.1,4.1-4.1c2.2,0,4.1,1.8,4.1,4.1
				C72.8,65.5,71,67.3,68.7,67.3z M68.7,60.2c-1.7,0-3.1,1.4-3.1,3.1c0,1.7,1.4,3.1,3.1,3.1c1.7,0,3.1-1.4,3.1-3.1
				C71.8,61.5,70.4,60.2,68.7,60.2z"/>
		</g>
		<g>
			<path fill="#0093FF" d="M60,77.1c-2.4,0-5.3-0.6-8.5-2.6c-1.1-0.6-1.4-2-0.7-3.1c0.6-1.1,2-1.4,3.1-0.7c6.8,4.2,11.7,0.1,11.9,0
				c0.9-0.8,2.4-0.7,3.2,0.2c0.8,0.9,0.7,2.3-0.2,3.2c-0.2,0.2-2,1.7-5,2.5C62.7,76.9,61.4,77.1,60,77.1z"/>
		</g>
	</g>
	<g>
		<circle fill="#FFFFFF" cx="109.1" cy="56.2" r="8.4"/>
		<path fill="#C1272D" d="M109.1,66.8c-5.9,0-10.6-4.8-10.6-10.6c0-5.9,4.8-10.6,10.6-10.6c5.9,0,10.6,4.8,10.6,10.6
			C119.7,62,114.9,66.8,109.1,66.8z M109.1,50c-3.4,0-6.1,2.7-6.1,6.1c0,3.4,2.7,6.1,6.1,6.1c3.4,0,6.1-2.8,6.1-6.1
			C115.2,52.8,112.4,50,109.1,50z"/>
	</g>
	<g>
		<g>
			<path fill="#ED1C24" d="M107.2,53.2c2.9,0,2.4-8.8-4.3-22.3C94,13.2,72.6,7.6,53,14c-24.6,8-23.4,29.5-23.4,29.5L81.8,43l11,1
				C92.8,44,103.8,53.3,107.2,53.2z"/>
			<path fill="#C1272D" d="M107.2,55.5c-3.6,0-11.5-6.2-15.3-9.3l-10.2-1l-52.1,0.6c0,0,0,0,0,0c-1.2,0-2.2-0.9-2.2-2.1
				c0-0.2-0.3-6,2.7-12.8c2.7-6.2,8.8-14.6,22.3-19c5.4-1.8,11-2.7,16.5-2.7c16.1,0,29.6,7.8,36.1,20.7c5.5,11,7.6,20.1,5.4,23.7
				C109.6,54.8,108.5,55.5,107.2,55.5C107.2,55.5,107.2,55.5,107.2,55.5z M81.8,40.7c0.1,0,0.1,0,0.2,0l11,1c0.5,0,0.9,0.2,1.2,0.5
				c4.9,4.2,10.2,7.8,12.4,8.5c0.3-1.9-0.4-8.2-5.7-18.9c-5.7-11.4-17.7-18.3-32.1-18.3c-5,0-10.1,0.8-15.1,2.4
				c-9.5,3.1-16.1,8.7-19.6,16.5c-1.5,3.5-2.1,6.6-2.2,8.6L81.8,40.7C81.7,40.7,81.7,40.7,81.8,40.7z"/>
		</g>
		<g>
			<path fill="#ED1C24" d="M90.7,33c0,0-1,6.3-3.5,8.5"/>
			<path fill="#C1272D" d="M87.2,43.8c-0.6,0-1.2-0.3-1.7-0.8c-0.8-0.9-0.7-2.4,0.2-3.2c1.3-1.1,2.4-4.9,2.8-7.2
				c0.2-1.2,1.4-2.1,2.6-1.9c1.2,0.2,2.1,1.4,1.9,2.6c-0.2,1.2-1.3,7.2-4.2,9.8C88.3,43.6,87.7,43.8,87.2,43.8z"/>
		</g>
	</g>
	<g>
		<g>
			<path fill="#FFFFFF" d="M92.3,44.5c0,4.8-4.5,8.5-10,8.5H36.9c-5.5,0-10-3.7-10-8.5c0-4.8,4.5-8.5,10-8.5h45.4
				C87.8,36,92.3,39.7,92.3,44.5z"/>
		</g>
		<g>
			<path fill="#C1272D" d="M82.3,56H36.9c-6.8,0-12.2-4.9-12.2-11s5.5-11,12.2-11h45.4c6.8,0,12.2,4.9,12.2,11S89,56,82.3,56z
				 M36.9,38c-4.2,0-7.7,3-7.7,6.5s3.5,6.5,7.7,6.5h45.4c4.2,0,7.7-3,7.7-6.5S86.5,38,82.3,38H36.9z"/>
		</g>
	</g>
</g>
</svg>
