<?xml version="1.0" encoding="utf-8"?>
<!-- Generator: Adobe Illustrator 18.0.0, SVG Export Plug-In . SVG Version: 6.00 Build 0)  -->
<!DOCTYPE svg PUBLIC "-//W3C//DTD SVG 1.1//EN" "http://www.w3.org/Graphics/SVG/1.1/DTD/svg11.dtd">
<svg version="1.1" id="图层_1" xmlns="http://www.w3.org/2000/svg" xmlns:xlink="http://www.w3.org/1999/xlink" x="0px" y="0px"
	 viewBox="0 0 64 64" enable-background="new 0 0 64 64" xml:space="preserve">
<g>
	<g>
		<g>
			<path fill="#CCCCCC" d="M32,63C14.9,63,1,49.1,1,32C1,14.9,14.9,1,32,1s31,13.9,31,31C63,49.1,49.1,63,32,63z"/>
		</g>
		<g>
			<g>
				<path fill="#F2F2F2" d="M32,2c16.6,0,30,13.4,30,30c0,16.6-13.4,30-30,30C15.4,62,2,48.6,2,32C2,15.4,15.4,2,32,2 M32,0
					C14.4,0,0,14.4,0,32c0,17.6,14.4,32,32,32s32-14.4,32-32C64,14.4,49.6,0,32,0L32,0z"/>
			</g>
		</g>
	</g>
	<g>
		<defs>
			<circle id="SVGID_23_" cx="32" cy="32" r="30"/>
		</defs>
		<clipPath id="SVGID_2_">
			<use xlink:href="#SVGID_23_"  overflow="visible"/>
		</clipPath>
		<g clip-path="url(#SVGID_2_)">
			<g>
				<path fill="#FFFFFF" d="M44.2,39.6c0-2.4,0-9.9,0-9.9c0-7.1-5.7-12.8-12.8-12.8c-7,0-12.8,5.7-12.8,12.8c0,0,0,7.9,0,9.7
					c0,1.2-1.6,4.7-2.7,5.9c-4.1,4.4-8.5,11-8.5,17.5c0,12.7,11.8,23,24.5,23c12.7,0,24-10.3,24-23c0-6.7-3.9-13.2-8.4-17.4
					C46.6,44.3,44.2,42.1,44.2,39.6z"/>
				<path fill="#999999" d="M32.1,86.7c-6.4,0-12.8-2.5-17.7-7c-5-4.6-7.8-10.7-7.8-17c0-8,6.1-15.4,8.7-18.2c0.9-1,2.4-4.3,2.4-5.2
					c0-1.8,0-9.7,0-9.7c0-7.6,6.2-13.8,13.8-13.8c7.6,0,13.8,6.2,13.8,13.8c0,0,0,7.5,0,9.9c0,2,2.3,4.1,3.1,4.9
					c4.2,3.9,8.8,10.7,8.8,18.2C57.1,75.7,45.6,86.7,32.1,86.7z M19.7,29.7c0,0,0,7.9,0,9.7c0,1.4-1.7,5.2-2.9,6.5
					c-1.9,2-8.2,9.3-8.2,16.8c0,11.7,11,22,23.5,22c12.5,0,23-10.1,23-22c0-6.8-4.2-13.1-8.1-16.7c-1-0.9-3.8-3.5-3.8-6.4
					c0-2.4,0-9.9,0-9.9c0-6.5-5.3-11.8-11.8-11.8C25,17.9,19.7,23.2,19.7,29.7L19.7,29.7z"/>
			</g>
			<g>
				<g>
					<circle fill="#999999" cx="27.6" cy="32.9" r="1.6"/>
					<path fill="#999999" d="M27.6,34.7c-1,0-1.8-0.8-1.8-1.8c0-1,0.8-1.8,1.8-1.8c1,0,1.8,0.8,1.8,1.8
						C29.5,33.9,28.6,34.7,27.6,34.7z M27.6,31.5c-0.7,0-1.3,0.6-1.3,1.3c0,0.7,0.6,1.3,1.3,1.3c0.7,0,1.3-0.6,1.3-1.3
						C29,32.1,28.4,31.5,27.6,31.5z"/>
				</g>
				<g>
					<circle fill="#999999" cx="35.2" cy="32.9" r="1.6"/>
					<path fill="#999999" d="M35.2,34.7c-1,0-1.8-0.8-1.8-1.8c0-1,0.8-1.8,1.8-1.8c1,0,1.8,0.8,1.8,1.8C37,33.9,36.2,34.7,35.2,34.7
						z M35.2,31.5c-0.7,0-1.3,0.6-1.3,1.3c0,0.7,0.6,1.3,1.3,1.3c0.7,0,1.3-0.6,1.3-1.3C36.5,32.1,35.9,31.5,35.2,31.5z"/>
				</g>
				<g>
					<path fill="#999999" d="M31.4,39.5c-1.1,0-2.4-0.3-3.7-1.1c-0.5-0.3-0.6-0.9-0.3-1.4c0.3-0.5,0.9-0.6,1.4-0.3
						c3,1.9,5.2,0,5.2,0c0.4-0.4,1-0.3,1.4,0.1c0.4,0.4,0.3,1-0.1,1.4C34.5,38.8,33.1,39.5,31.4,39.5z"/>
				</g>
			</g>
			<g>
				<g>
					<circle fill="#FFFFFF" cx="52.9" cy="28.9" r="3.7"/>
					<path fill="#999999" d="M52.9,33.6c-2.6,0-4.7-2.1-4.7-4.7c0-2.6,2.1-4.7,4.7-4.7c2.6,0,4.7,2.1,4.7,4.7
						C57.6,31.5,55.5,33.6,52.9,33.6z M52.9,26.2c-1.5,0-2.7,1.2-2.7,2.7c0,1.5,1.2,2.7,2.7,2.7c1.5,0,2.7-1.2,2.7-2.7
						C55.6,27.4,54.4,26.2,52.9,26.2z"/>
				</g>
				<g>
					<g>
						<path fill="#F2F2F2" d="M52.1,27.6c1.3,0,1.1-3.9-1.9-9.8C46.3,10,36.9,7.6,28.3,10.4c-10.8,3.5-10.3,13-10.3,13l22.9-0.2
							l4.8,0.5C45.8,23.6,50.6,27.6,52.1,27.6z"/>
						<path fill="#999999" d="M52.1,28.8c-1.6,0-4.9-2.5-6.8-4.1l-4.4-0.4L18,24.6c-0.7,0-1.2-0.5-1.3-1.2c0-0.1-0.4-10.5,11.2-14.2
							C30.3,8.4,32.8,8,35.2,8c7.2,0,13.2,3.5,16.1,9.3c1.9,3.9,3.6,8.7,2.4,10.7C53.3,28.5,52.8,28.8,52.1,28.8
							C52.1,28.8,52.1,28.8,52.1,28.8z M40.9,21.8c0,0,0.1,0,0.1,0l4.8,0.5c0.3,0,0.5,0.1,0.7,0.3c1.9,1.6,4,3.1,5,3.6
							c0-1.1-0.5-3.8-2.5-7.8c-2.5-4.9-7.7-7.9-13.9-7.9c-2.2,0-4.4,0.4-6.5,1.1c-7.6,2.5-9.1,8.1-9.4,10.5L40.9,21.8
							C40.9,21.8,40.9,21.8,40.9,21.8z"/>
					</g>
					<g>
						<path fill="#ED1C24" d="M46.1,19.8c0,0-0.4,2.8-1.5,3.7"/>
						<path fill="#999999" d="M44.6,24.8c-0.3,0-0.7-0.1-0.9-0.4c-0.5-0.5-0.4-1.3,0.1-1.8c0.5-0.4,1-2.1,1.1-3
							c0.1-0.7,0.8-1.1,1.4-1c0.7,0.1,1.1,0.8,1,1.4c-0.1,0.5-0.6,3.3-1.9,4.5C45.2,24.7,44.9,24.8,44.6,24.8z"/>
					</g>
				</g>
				<g>
					<g>
						<path fill="#FFFFFF" d="M46,26.3c0,1.4-1.1,2.5-2.5,2.5h-25c-1.4,0-2.5-1.1-2.5-2.5v-2c0-1.4,1.1-2.5,2.5-2.5h25
							c1.4,0,2.5,1.1,2.5,2.5V26.3z"/>
					</g>
					<g>
						<path fill="#999999" d="M47,26.3c0,1.9-1.6,3.5-3.5,3.5h-25c-1.9,0-3.5-1.6-3.5-3.5v-2c0-1.9,1.6-3.5,3.5-3.5h25
							c1.9,0,3.5,1.6,3.5,3.5V26.3z M45,24.3c0-0.8-0.7-1.5-1.5-1.5h-25c-0.8,0-1.5,0.7-1.5,1.5v2c0,0.8,0.7,1.5,1.5,1.5h25
							c0.8,0,1.5-0.7,1.5-1.5V24.3z"/>
					</g>
				</g>
			</g>
		</g>
	</g>
</g>
</svg>
