<?xml version="1.0" encoding="utf-8"?>
<!-- Generator: Adobe Illustrator 18.0.0, SVG Export Plug-In . SVG Version: 6.00 Build 0)  -->
<!DOCTYPE svg PUBLIC "-//W3C//DTD SVG 1.1//EN" "http://www.w3.org/Graphics/SVG/1.1/DTD/svg11.dtd">
<svg version="1.1" id="图层_1" xmlns="http://www.w3.org/2000/svg" xmlns:xlink="http://www.w3.org/1999/xlink" x="0px" y="0px"
	 viewBox="0 0 320 204" enable-background="new 0 0 320 204" xml:space="preserve">
<g>
	<g>
		<g>
			<path fill="#FFFFFF" d="M49,117.3c-3.3,0-6-2.7-6-6V17.9c0-9.5,6.7-16.7,16-16.7c9.1,0,16.3,7.6,16.3,16.9c0,3.3-2.8,6-6.1,6
				c-3.3,0-6.1-2.7-6.1-6c0-2.8-1.6-4.9-4.1-4.9s-4.1,2-4.1,4.7v93.4C55,114.6,52.3,117.3,49,117.3z"/>
		</g>
		<g>
			<path fill="#F2F2F2" d="M59,2.2c8.6,0,15.3,7.1,15.3,15.8c0,2.8-2.4,5-5.1,5c-2.8,0-5.1-2.2-5.1-5c0-3.3-1.9-5.9-5.1-5.9
				c-3.2,0-5.1,2.5-5.1,5.7v93.4c0,2.8-2.2,5-5,5c-2.8,0-5-2.2-5-5V17.9C44,9.1,50.3,2.2,59,2.2 M58.8,0.2C54,0.2,49.4,2,46.2,5.3
				C43,8.6,41,13.1,41,17.9v93.4c0,3.9,3.6,7,7.5,7c3.9,0,7.5-3.1,7.5-7V17.9c0-2.2,1.1-3.7,3.1-3.7c2,0,3.2,1.6,3.2,3.8
				c0,3.9,3.1,7,7,7c3.9,0,7-3.1,7-7C76.3,8.2,68.4,0.2,58.8,0.2L58.8,0.2z"/>
		</g>
	</g>
	<g>
		<defs>
			<path id="SVGID_121_" d="M59,2.2c8.6,0,15.3,7.1,15.3,15.8c0,2.8-2.4,5-5.1,5c-2.8,0-5.1-2.2-5.1-5c0-3.3-1.9-5.9-5.1-5.9
				c-3.2,0-5.1,2.5-5.1,5.7v93.4c0,2.8-2.2,5-5,5c-2.8,0-5-2.2-5-5V17.9C44,9.1,50.3,2.2,59,2.2z"/>
		</defs>
		<clipPath id="SVGID_2_">
			<use xlink:href="#SVGID_121_"  overflow="visible"/>
		</clipPath>
		<g clip-path="url(#SVGID_2_)">
			<g>
				
					<rect x="62.2" y="-20.8" transform="matrix(-0.7071 0.7071 -0.7071 -0.7071 114.2762 -40.4681)" fill="#ED1C24" width="6.6" height="48.5"/>
			</g>
			<g>
				
					<rect x="51.7" y="-15.3" transform="matrix(-0.7072 0.7071 -0.7071 -0.7072 100.2906 -23.6447)" fill="#ED1C24" width="6.6" height="48.5"/>
			</g>
			<g>
				
					<rect x="44" y="-7.6" transform="matrix(-0.7071 0.7071 -0.7071 -0.7071 92.5675 -5.0123)" fill="#ED1C24" width="6.6" height="48.5"/>
			</g>
			<g>
				
					<rect x="44" y="8.4" transform="matrix(-0.7071 0.7071 -0.7071 -0.7071 103.876 22.289)" fill="#ED1C24" width="6.6" height="48.5"/>
			</g>
			<g>
				
					<rect x="44" y="24.4" transform="matrix(-0.7071 0.7071 -0.7071 -0.7071 115.1836 49.5864)" fill="#ED1C24" width="6.6" height="48.5"/>
			</g>
			<g>
				
					<rect x="44" y="40.4" transform="matrix(-0.7071 0.7071 -0.7071 -0.7071 126.4907 76.887)" fill="#ED1C24" width="6.6" height="48.5"/>
			</g>
			<g>
				
					<rect x="44" y="56.4" transform="matrix(-0.7071 0.7071 -0.7071 -0.7071 137.799 104.1834)" fill="#ED1C24" width="6.6" height="48.5"/>
			</g>
			<g>
				
					<rect x="44" y="73.2" transform="matrix(-0.7071 0.7071 -0.7071 -0.7071 149.723 132.9698)" fill="#ED1C24" width="6.6" height="48.5"/>
			</g>
			<g>
				
					<rect x="44" y="90.1" transform="matrix(-0.7071 0.7071 -0.7071 -0.7071 161.6488 161.7535)" fill="#ED1C24" width="6.6" height="48.5"/>
			</g>
		</g>
	</g>
</g>
<g>
	
		<ellipse transform="matrix(0.9998 1.822410e-02 -1.822410e-02 0.9998 1.5348 -4.8826)" fill="#FFFFFF" cx="268.7" cy="81.8" rx="14.6" ry="2.6"/>
	<g>
		
			<path fill="#FFFFFF" stroke="#0093FF" stroke-width="2.3736" stroke-linecap="round" stroke-linejoin="round" stroke-miterlimit="10" d="
			M283.6,81.9c0-1.5,1.5-32.2,1.5-32.2c0.2-8.8-6.9-16.1-15.7-16.3l0,0c-8.8-0.2-16.1,6.9-16.3,15.7l0.6,32.2"/>
	</g>
</g>
<g>
	<polygon fill="#ED1C24" points="217,59 217,19 105,19 105,59 0,59 0,204 320,204 320,59 	"/>
	<path fill="#C1272D" d="M320,204H0V57h102V19.1c0-1.3,0.9-2.1,2.1-2.1h112.2c1.3,0,2.6,0.8,2.6,2.1V57h101V204z M0,203h320V61
		H216.4c-1.3,0-1.4-0.5-1.4-1.7V21H106v38.3c0,1.3-0.6,1.7-1.9,1.7H0V203z"/>
</g>
<g>
	<polygon opacity="0.4" fill="#C1272D" points="320,57 244.9,57 0,202.9 0,204 320,204 	"/>
</g>
<g>
	<g>
		<path fill="#FFFFFF" stroke="#FFFFFF" stroke-width="0.1761" stroke-miterlimit="10" d="M139.2,22.7c1.6,0.1,2.6,1.2,3.3,2.6
			c0.8-0.7,1.7-1.3,2.7-1.4c2.3-0.3,3.4,1.5,3.7,2.3c0.8-1.3,2-2.6,3.5-2.7c0.8-0.1,1.5,0.1,2.1,0.6c1.2,1,1.7,2.8,1.9,4.4
			c0.4,2.9-0.1,6.3-1.1,8.1c-0.1,0.1-0.2,0.2-0.4,0.2c-0.3,0-0.5-0.1-0.5-0.4c0-0.1,0-0.2,0-0.3c0.9-1.6,1.3-4.8,0.9-7.5
			c-0.2-2-1-4.4-3-4.2c-1.6,0.2-2.8,2.4-3,2.9c0.3,0.7,0.6,1.7,0.7,2.8c0.4,3.5-0.1,7.4-2.1,7.6c-0.3,0-0.7-0.1-0.9-0.2
			c-0.4-0.3-0.6-0.9-0.8-1.9c-0.3-2.2,0.6-5.9,2-8.4c-0.3-0.8-0.7-1.4-1.2-1.8c-0.5-0.4-1.1-0.6-1.9-0.5c-0.9,0.1-1.7,0.6-2.4,1.5
			c0.4,1.1,0.7,2.6,0.8,3.8c0.5,4.1-0.4,8.2-2.7,8.5c-1.1,0.1-2.1-0.7-2.3-2.6c-0.3-2.7,0.9-7.4,3.1-9.9c-0.6-1.6-1.5-2.4-2.7-2.5
			c-0.2,0-0.4-0.2-0.5-0.4c0-0.3,0.2-0.5,0.4-0.5L139.2,22.7z M142.1,27.1c-1.7,2.6-2.8,6.4-2.5,8.8c0,0.3,0.3,1.9,1.3,1.8
			c1.4-0.2,2.2-3.7,1.8-7.5C142.6,29,142.3,28,142.1,27.1z M148.7,28.3c-1.1,2.5-1.7,5.4-1.5,7.2c0,0.3,0.2,1.4,0.6,1.3
			c0.9-0.1,1.6-2.9,1.2-6.4C149,29.7,148.9,29,148.7,28.3z"/>
		<path fill="#FFFFFF" stroke="#FFFFFF" stroke-width="0.1761" stroke-miterlimit="10" d="M162.7,29.8c-0.1-0.4-0.4-0.7-1-0.6
			c-1.1,0.1-2.5,1.7-2.2,4.1c0.1,0.7,0.5,2,2.1,1.9c0.6-0.1,1.1-0.4,1.4-0.9c0.1-0.1,0.2-0.2,0.3-0.2c0.3,0,0.5,0.2,0.5,0.4
			c0.1,0.4-0.9,1.4-2.2,1.6c-1.7,0.2-2.9-0.8-3.1-2.6c-0.3-2.8,1.4-4.9,3.1-5.1c1.3-0.2,1.9,0.6,2,1.5c0.2,1.7-1.5,2.8-2.8,3
			c-0.3,0-0.5-0.1-0.5-0.4c0-0.2,0.1-0.5,0.4-0.5C161.8,31.6,162.8,30.8,162.7,29.8z"/>
		<path fill="#FFFFFF" stroke="#FFFFFF" stroke-width="0.1761" stroke-miterlimit="10" d="M166.4,35c0,0.3-0.2,0.4-0.4,0.5
			c-0.3,0-0.5-0.2-0.5-0.4c0-0.2,0.2-3.8,0.1-4.5c-0.1-1-0.4-1.3-0.7-1.6c-0.1-0.1-0.2-0.2-0.2-0.3c0-0.3,0.2-0.5,0.4-0.5
			c0.4-0.1,1.1,0.6,1.2,1.7c0.3-1.5,1.4-2.3,2.5-2.4c0.3,0,0.5,0.1,0.6,0.4c0,0.3-0.1,0.4-0.4,0.5c-2.3,0.4-2.4,3.1-2.5,6L166.4,35z
			"/>
		<path fill="#FFFFFF" stroke="#FFFFFF" stroke-width="0.1761" stroke-miterlimit="10" d="M171.8,34.3c0,0.3-0.2,0.4-0.4,0.5
			c-0.3,0-0.5-0.2-0.5-0.4c0-0.2,0.2-3.8,0.1-4.5c-0.1-1-0.4-1.3-0.7-1.6c-0.1-0.1-0.2-0.2-0.2-0.3c0-0.3,0.2-0.5,0.4-0.5
			c0.4,0,1.1,0.6,1.2,1.7c0.3-1.5,1.4-2.3,2.5-2.4c0.3,0,0.5,0.1,0.6,0.4c0,0.3-0.1,0.4-0.4,0.5c-2.3,0.4-2.4,3.1-2.5,6L171.8,34.3z
			"/>
		<path fill="#FFFFFF" stroke="#FFFFFF" stroke-width="0.1761" stroke-miterlimit="10" d="M176.7,27.1c-0.1,1-0.2,2.6,0,4
			c0.1,0.6,0.3,2,1.1,1.9c1.3-0.2,2.6-3.8,2.2-6.4c0-0.3,0.2-0.5,0.4-0.5c0.3,0,0.5,0.2,0.5,0.4c0.1,1,0.2,3.1,0.3,4.2
			c0,0.9,0.1,2.7-0.2,4.7c0.8,0.3,1.4,1,1.5,1.8c0,0.3-0.2,0.5-0.4,0.5c-0.3,0-0.5-0.2-0.5-0.4c-0.1-0.6-0.6-0.9-0.8-0.9
			c-0.7,2.6-2.6,4.4-4.6,4.7c-1.1,0.1-2.1-0.3-2.3-1.6c-0.3-2.3,2.4-4,4.7-4.3c0.5-0.1,1-0.1,1.4,0c0.2-1.1,0.3-2.9,0.3-4.3
			c-0.4,1.6-1.4,3-2.4,3.1c-1.4,0.2-2-1.2-2.2-2.8c-0.2-1.5-0.1-3.2,0-4c0-0.2,0-0.5,0.5-0.6C176.5,26.5,176.7,26.7,176.7,27.1
			L176.7,27.1z M179.9,35.9c-0.3-0.1-0.8,0-1.2,0c-1.8,0.2-4,1.7-3.8,3.2c0.1,0.7,0.7,1,1.3,0.9C177.8,39.9,179.3,38.2,179.9,35.9z"
			/>
		<path fill="#FFFFFF" stroke="#FFFFFF" stroke-width="0.1761" stroke-miterlimit="10" d="M135,46.8c0-0.2,0-0.4,0-0.6
			c-3,0.9-4.5,4.1-4.1,7.1c0.4,3.1,2.5,5.4,5.8,5c1.9-0.2,3.4-1.1,4.1-2.5c0.1-0.1,0.2-0.3,0.4-0.3c0.2,0,0.5,0.2,0.5,0.4
			c0,0.3-1.2,2.8-4.9,3.3c-3.9,0.5-6.5-2.1-6.9-5.8c-0.5-3.8,1.6-7.4,5.3-8.3c0.4-1.4,1.6-2.4,2.9-2.5c0.5-0.1,1.3-0.1,1.3,0.4
			c0,0.3-0.2,0.5-0.4,0.5c-0.1,0-0.6,0-0.8,0c-0.8,0.1-1.5,0.5-1.9,1.4c2.8-0.2,4.6,1.5,4.8,3.3c0.1,1.2-0.5,2.4-2,2.6
			c-0.8,0.1-1.6-0.2-2.3-0.7C135.8,49.4,135.2,48.2,135,46.8z M140.1,48.5c-0.2-1.5-1.7-2.7-4.1-2.5c0,0.2,0,0.4,0,0.7
			c0.3,2.4,2,3.5,3,3.3C140.1,49.8,140.1,48.9,140.1,48.5z"/>
		<path fill="#FFFFFF" stroke="#FFFFFF" stroke-width="0.1761" stroke-miterlimit="10" d="M144.2,57.8c-0.2-0.6-0.3-1.1-0.4-1.8
			c-0.3-2.4-0.1-5.3,0-6.2c-0.2,0-0.4,0.1-0.6,0.1c-0.4,0-0.9,0.1-0.9-0.4c0-0.3,0.2-0.5,0.4-0.5l0.4-0.1c0.3,0,0.6-0.1,0.8-0.2
			c0.4-2.2,1.5-4.9,3.2-5.1c0.9-0.1,1.6,0.4,1.7,1.3c0.2,1.8-1.8,3.7-4,4.5c-0.1,0.8-0.3,2.4-0.3,4.5c0.4-2.3,1.6-3.8,2.7-3.9
			c1.7-0.2,2,2.1,2.1,3c0.2,1.8,0,3.7-0.1,3.9c0,0.2-0.2,0.4-0.4,0.4c-0.3,0-0.5-0.2-0.6-0.4c0,0,0-0.1,0-0.1c0.1-0.7,0.2-2.2,0-3.6
			c-0.2-1.7-0.6-2.2-1.1-2.1c-1.4,0.2-2.8,4.1-2.2,6.4c0.1,0.3-0.1,0.5-0.4,0.5C144.4,58.1,144.2,58,144.2,57.8z M144.9,48.4
			c1.6-0.8,2.9-2.2,2.8-3.3c0-0.3-0.2-0.5-0.6-0.5C146.4,44.7,145.4,46.3,144.9,48.4z"/>
		<path fill="#FFFFFF" stroke="#FFFFFF" stroke-width="0.1761" stroke-miterlimit="10" d="M152.6,56.8c0,0.3-0.2,0.4-0.4,0.5
			c-0.3,0-0.5-0.2-0.5-0.4c0-0.2,0.2-3.8,0.1-4.5c-0.1-1-0.4-1.3-0.7-1.6c-0.1-0.1-0.2-0.2-0.2-0.3c0-0.3,0.2-0.5,0.4-0.5
			c0.4-0.1,1.1,0.6,1.2,1.7c0.3-1.5,1.4-2.3,2.5-2.4c0.3,0,0.5,0.1,0.6,0.4c0,0.3-0.1,0.4-0.4,0.5c-2.3,0.4-2.4,3.1-2.5,6
			L152.6,56.8z"/>
		<path fill="#FFFFFF" stroke="#FFFFFF" stroke-width="0.1761" stroke-miterlimit="10" d="M158,49.5c0,0,0,0.1,0,0.1
			c-0.2,1.6-0.3,4.5-0.1,6.6c0,0.3-0.2,0.5-0.4,0.5c-0.3,0-0.5-0.2-0.6-0.4c0-0.3-0.2-4.1,0.2-6.8c0-0.3,0.3-0.5,0.5-0.4
			C157.8,49.1,158,49.3,158,49.5z M158.6,46.1l-0.8,0.7l1.4,0.7l-1.6-0.1l-0.5,1.3l-0.1-1.3l-1.1,0l1-0.7l-0.2-1l0.7,0.6L158.6,46.1
			z"/>
		<path fill="#FFFFFF" stroke="#FFFFFF" stroke-width="0.1761" stroke-miterlimit="10" d="M161.9,53.4c0,0.4-0.3,0.5-0.4,0.5
			c-0.1,0-0.2,0-0.4,0c-0.4,0.1-0.5,0.4-0.4,0.7c0.1,0.5,0.8,1,1.5,0.9c0.8-0.1,1.6-0.7,1.4-1.6c-0.1-0.5-0.4-1.1-1.4-1.5
			c-0.7-0.3-1.7-0.8-1.8-1.9c-0.1-0.9,0.5-1.9,1.9-2.1c1.3-0.2,1.9,0.7,2,1.1c0,0.3-0.2,0.5-0.4,0.6c-0.1,0-0.4-0.1-0.4-0.2
			c-0.1-0.2-0.5-0.7-1-0.6c-0.7,0.1-1,0.6-1,1.1c0.1,0.4,0.3,0.7,1.2,1.1c1.1,0.5,1.9,1,2.1,2.2c0.2,1.4-0.7,2.5-2.3,2.7
			c-1.2,0.2-2.5-0.4-2.6-1.5c-0.1-0.9,0.5-1.7,1.3-1.8C161.5,52.8,161.9,52.9,161.9,53.4z"/>
		<path fill="#FFFFFF" stroke="#FFFFFF" stroke-width="0.1761" stroke-miterlimit="10" d="M168.9,55.3c0,0-0.1,0-0.2,0
			c-1.1,0-1.7-0.9-2-2.6c-0.1-1-0.1-2.3,0.1-4c-0.6,0.1-0.9,0.2-1.2,0.3c-0.2,0-0.3-0.1-0.4-0.3c-0.1-0.6,0.8-0.7,1.6-0.9
			c0.1-0.7,0.2-1.8,0.4-2.7c0-0.2,0.2-0.4,0.4-0.4c0.3,0,0.5,0.1,0.6,0.4c0,0.1,0,0.2,0,0.2c-0.1,0.7-0.3,1.9-0.3,2.4
			c0.3,0,0.7-0.1,1.3-0.1c0.2,0,0.5,0.2,0.5,0.4c0,0.3-0.1,0.5-0.4,0.5c-0.4,0.1-1.2,0.1-1.6,0.1c-0.2,1.4-0.3,2.8-0.1,4
			c0.2,1.7,0.9,1.8,1.1,1.8c0.2,0,0.5,0.2,0.5,0.4C169.4,55,169.2,55.2,168.9,55.3z"/>
		<path fill="#FFFFFF" stroke="#FFFFFF" stroke-width="0.1761" stroke-miterlimit="10" d="M171,54.5c0-0.2,0.1-0.8,0.1-1.4
			c0.1-1.1,0.3-2.7,0.1-3.8c0-0.2-0.1-1-0.5-1.3c-0.1-0.1-0.1-0.2-0.2-0.3c0-0.3,0.2-0.5,0.4-0.5c0.5-0.1,1.1,0.8,1.1,2.2
			c0.5-1.7,1.3-2.4,2.2-2.5c0.8-0.1,1.8,0.3,2.1,2.3c0.4-1.8,1.1-2.7,2.3-2.9c1-0.1,1.9,0.7,2.2,3.1c0.2,1.6,0,3.4-0.1,4.2
			c-0.1,0.2-0.2,0.4-0.4,0.4c-0.3,0-0.5-0.2-0.6-0.4c0,0,0-0.1,0-0.1c0.1-0.8,0.3-2.5,0.1-3.9c-0.1-1.2-0.5-2.3-1.2-2.2
			c-1.2,0.1-2.1,2.6-2.2,5.3c-0.1,1.5-0.1,1.7-0.5,1.7c-0.3,0-0.5-0.2-0.5-0.4c0-0.1,0-0.8,0.1-1.2c0-1,0.1-1.9,0-2.8
			c-0.1-0.5-0.3-2.1-1.2-2c-1.1,0.1-2.1,2.8-2.4,6.7c0,0.2-0.2,0.4-0.4,0.4C171.2,55,171,54.8,171,54.5z"/>
		<path fill="#FFFFFF" stroke="#FFFFFF" stroke-width="0.1761" stroke-miterlimit="10" d="M188.4,47.4c0.1,0.8,0.1,1.8,0,2.7
			c0,0.6-0.1,1.3,0,1.8c0,0.1,0,0.2,0.1,0.3c0.1,0.1,0.1,0.1,0.1,0.3c0,0.2-0.2,0.5-0.4,0.5c-0.5,0.1-0.7-0.5-0.7-1
			c-0.1-0.5,0-1.1,0-1.9c0-0.8,0.1-1.7,0-2.5c-0.1-1.1-0.7-1.4-1.3-1.3c-1.7,0.2-2.6,2.9-2.4,4.9c0.1,0.8,0.5,1.3,1.1,1.3
			c0.6-0.1,1-0.7,1.1-1.3c0-0.2,0.2-0.3,0.4-0.3c0.3,0,0.5,0.2,0.5,0.4c0,0.4-0.5,1.9-2.1,2.1c-0.9,0.1-1.9-0.4-2.1-2.1
			c-0.3-2.3,0.9-5.6,3.3-5.9C187.3,45.1,188.2,45.9,188.4,47.4z"/>
		<path fill="#FFFFFF" stroke="#FFFFFF" stroke-width="0.1761" stroke-miterlimit="10" d="M192.3,49.7c0,0.4-0.3,0.5-0.4,0.5
			c-0.1,0-0.2,0-0.4,0c-0.4,0.1-0.5,0.4-0.4,0.7c0.1,0.5,0.8,1,1.5,0.9c0.8-0.1,1.6-0.7,1.4-1.6c-0.1-0.5-0.4-1.1-1.4-1.5
			c-0.7-0.3-1.7-0.8-1.8-1.9c-0.1-0.9,0.5-1.9,1.9-2.1c1.3-0.2,1.9,0.7,2,1.1c0,0.3-0.2,0.5-0.4,0.6c-0.1,0-0.4-0.1-0.4-0.2
			c-0.1-0.2-0.5-0.7-1-0.6c-0.7,0.1-1,0.6-1,1.1c0.1,0.4,0.3,0.7,1.2,1.1c1.1,0.5,1.9,1.1,2.1,2.2c0.2,1.4-0.7,2.5-2.3,2.7
			c-1.2,0.2-2.5-0.4-2.6-1.5c-0.1-0.9,0.5-1.7,1.3-1.8C191.8,49.1,192.2,49.2,192.3,49.7z"/>
	</g>
	<path fill="#FFFFFF" stroke="#FFFFFF" stroke-width="0.5934" stroke-miterlimit="10" d="M121.6,68.7c0,4.4,79.9-7.9,79.8-9.2
		c0-0.8-27.5,1.5-50.2,4C135.3,65.3,121.6,66.9,121.6,68.7z"/>
</g>
<rect x="102" y="18" opacity="0.4" fill="#C1272D" width="117" height="9"/>
<g>
	<rect x="99" y="4" fill="#FFFFFF" width="122" height="15"/>
	<path fill="#EADBCC" d="M221,21H99c-1.1,0-2-0.9-2-2V4c0-1.1,0.9-2,2-2h122c1.1,0,2,0.9,2,2v15C223,20.1,222.1,21,221,21z M101,17
		h118V6H101V17z"/>
</g>
<path fill="#FFFFFF" stroke="#F2F2F2" stroke-width="2.3736" stroke-linecap="round" stroke-linejoin="round" stroke-miterlimit="10" d="
	M21.7,55.8c3.2-4.4,13-5.1,17.6-3.1c2.1,0.8,3.8,1.9,6,1.9c3.3,0,6.5-1.6,9.8-1.6c2.5,0.1,4.9,1.8,7.3,1.4c2.7-0.5,3.7-2.2,7-1.5
	c2.6,0.5,6,1.4,6.5,4.4c0.3,1.5-0.1,2.6-1.6,3.3c-3.8,2.1-8.8,0.3-12.2,3.4c-2.7,2.3-4.4,5.5-8,6.7c-6.2,2.1-14.7,0.5-20.1-3
	c-2.7-1.9-5.4-4.7-8.9-4c-2.2,0.4-3,1.6-5.6,1c-7.3-1.8-5-10.7,2.8-9"/>
<ellipse fill="#FFFFFF" stroke="#F2F2F2" stroke-width="1.7802" stroke-linecap="round" stroke-linejoin="round" stroke-miterlimit="10" cx="82.7" cy="69.2" rx="5.8" ry="3.3"/>
<circle fill="#FFFFFF" stroke="#0093FF" stroke-width="2.3736" stroke-linecap="round" stroke-linejoin="round" stroke-miterlimit="10" cx="253" cy="58.8" r="6.1"/>
<circle fill="#FFFFFF" stroke="#0093FF" stroke-width="2.3736" stroke-linecap="round" stroke-linejoin="round" stroke-miterlimit="10" cx="285.6" cy="58.8" r="6.1"/>
<g>
	
		<circle fill="#0093FF" stroke="#0093FF" stroke-width="0.2967" stroke-linecap="round" stroke-linejoin="round" stroke-miterlimit="10" cx="273.6" cy="43.8" r="1.2"/>
	
		<circle fill="#0093FF" stroke="#0093FF" stroke-width="0.2967" stroke-linecap="round" stroke-linejoin="round" stroke-miterlimit="10" cx="265.1" cy="43.8" r="1.2"/>
	
		<path fill="none" stroke="#0093FF" stroke-width="1.7802" stroke-linecap="round" stroke-linejoin="round" stroke-miterlimit="10" d="
		M270.7,47c-1.1-0.9-2.9-0.9-3.5,0.5c-0.6,1.6,1,2.1,2.2,2.2c-1.1,0-2,0.8-1.8,1.9c0.3,1.3,2.7,1.3,3.4,0"/>
</g>
<rect fill="none" width="320" height="204"/>
</svg>
