<?xml version="1.0" encoding="utf-8"?>
<!-- Generator: Adobe Illustrator 18.0.0, SVG Export Plug-In . SVG Version: 6.00 Build 0)  -->
<!DOCTYPE svg PUBLIC "-//W3C//DTD SVG 1.1//EN" "http://www.w3.org/Graphics/SVG/1.1/DTD/svg11.dtd">
<svg version="1.1" id="图层_1" xmlns="http://www.w3.org/2000/svg" xmlns:xlink="http://www.w3.org/1999/xlink" x="0px" y="0px"
	 viewBox="0 0 320 427.1" enable-background="new 0 0 320 427.1" xml:space="preserve">
<g>
	<polygon fill="#FFFFFF" points="0,93.7 48.8,0.1 67.2,26.1 85,27.2 109.2,75.8 122.2,84.1 145.9,94.7 161.8,76.4 171.3,91.8 
		231,43.2 263.6,78.7 265.3,89.4 274.8,82.3 295.5,94.1 297.9,85.8 312.6,43.2 320,60 320,427.1 0,427.1 	"/>
</g>
<g>
	
		<polygon fill="#39B54A" stroke="#009245" stroke-width="4" stroke-linecap="round" stroke-linejoin="round" stroke-miterlimit="10" points="
		281.7,296.1 251.6,251.1 272.4,251.1 241.2,206.1 260.8,206.1 218.5,142 178.3,206.1 196.4,206.1 166.8,251.1 186,251.1 
		157.4,296.1 	"/>
	
		<line fill="#39B54A" stroke="#009245" stroke-width="3.5604" stroke-linecap="round" stroke-linejoin="round" stroke-miterlimit="10" x1="203.1" y1="188.7" x2="199.1" y2="195.1"/>
	
		<line fill="#39B54A" stroke="#009245" stroke-width="3.5604" stroke-linecap="round" stroke-linejoin="round" stroke-miterlimit="10" x1="233.5" y1="186.5" x2="237.3" y2="194.4"/>
	
		<path fill="#39B54A" stroke="#009245" stroke-width="3.5604" stroke-linecap="round" stroke-linejoin="round" stroke-miterlimit="10" d="
		M219.3,175.3"/>
	
		<line fill="#39B54A" stroke="#009245" stroke-width="3.5604" stroke-linecap="round" stroke-linejoin="round" stroke-miterlimit="10" x1="216.1" y1="171.8" x2="212.8" y2="177.9"/>
	
		<line fill="#39B54A" stroke="#009245" stroke-width="3.5604" stroke-linecap="round" stroke-linejoin="round" stroke-miterlimit="10" x1="221.9" y1="184.2" x2="222.8" y2="190.5"/>
	
		<line fill="#39B54A" stroke="#009245" stroke-width="3.5604" stroke-linecap="round" stroke-linejoin="round" stroke-miterlimit="10" x1="214.6" y1="198.1" x2="212.1" y2="205.2"/>
	
		<line fill="#39B54A" stroke="#009245" stroke-width="3.5604" stroke-linecap="round" stroke-linejoin="round" stroke-miterlimit="10" x1="226.3" y1="208.6" x2="230.9" y2="216.4"/>
	
		<line fill="#39B54A" stroke="#009245" stroke-width="3.5604" stroke-linecap="round" stroke-linejoin="round" stroke-miterlimit="10" x1="244.7" y1="231" x2="250.3" y2="238.6"/>
	
		<line fill="#39B54A" stroke="#009245" stroke-width="3.5604" stroke-linecap="round" stroke-linejoin="round" stroke-miterlimit="10" x1="232.8" y1="229.6" x2="232.6" y2="236.7"/>
	
		<line fill="#39B54A" stroke="#009245" stroke-width="3.5604" stroke-linecap="round" stroke-linejoin="round" stroke-miterlimit="10" x1="235.2" y1="254.5" x2="239.4" y2="262.9"/>
	
		<line fill="#39B54A" stroke="#009245" stroke-width="3.5604" stroke-linecap="round" stroke-linejoin="round" stroke-miterlimit="10" x1="225.9" y1="247" x2="221.2" y2="255.4"/>
	
		<line fill="#39B54A" stroke="#009245" stroke-width="3.5604" stroke-linecap="round" stroke-linejoin="round" stroke-miterlimit="10" x1="216.8" y1="224.2" x2="214" y2="234.7"/>
</g>
<g>
	
		<polygon fill="#39B54A" stroke="#009245" stroke-width="4" stroke-linecap="round" stroke-linejoin="round" stroke-miterlimit="10" points="
		138,349.1 112.9,313.1 130.2,313.1 104.3,276.1 120.6,276.1 85.5,222.8 52.1,276.1 67.1,276.1 42.5,313.1 58.5,313.1 34.7,349.1 	
		"/>
	
		<line fill="#39B54A" stroke="#009245" stroke-width="3.5604" stroke-linecap="round" stroke-linejoin="round" stroke-miterlimit="10" x1="72.7" y1="260.6" x2="69.4" y2="265.9"/>
	
		<line fill="#39B54A" stroke="#009245" stroke-width="3.5604" stroke-linecap="round" stroke-linejoin="round" stroke-miterlimit="10" x1="98" y1="258.8" x2="101" y2="265.4"/>
	
		<path fill="#39B54A" stroke="#009245" stroke-width="3.5604" stroke-linecap="round" stroke-linejoin="round" stroke-miterlimit="10" d="
		M86.2,249.5"/>
	
		<line fill="#39B54A" stroke="#009245" stroke-width="3.5604" stroke-linecap="round" stroke-linejoin="round" stroke-miterlimit="10" x1="83.5" y1="246.6" x2="80.7" y2="251.6"/>
	
		<line fill="#39B54A" stroke="#009245" stroke-width="3.5604" stroke-linecap="round" stroke-linejoin="round" stroke-miterlimit="10" x1="88.3" y1="256.8" x2="88.3" y2="263.4"/>
	
		<line fill="#39B54A" stroke="#009245" stroke-width="3.5604" stroke-linecap="round" stroke-linejoin="round" stroke-miterlimit="10" x1="82.2" y1="268.4" x2="80.1" y2="274.3"/>
	
		<line fill="#39B54A" stroke="#009245" stroke-width="3.5604" stroke-linecap="round" stroke-linejoin="round" stroke-miterlimit="10" x1="92" y1="277.1" x2="95.8" y2="283.6"/>
	
		<line fill="#39B54A" stroke="#009245" stroke-width="3.5604" stroke-linecap="round" stroke-linejoin="round" stroke-miterlimit="10" x1="107.2" y1="295.7" x2="111.9" y2="302.1"/>
	
		<line fill="#39B54A" stroke="#009245" stroke-width="3.5604" stroke-linecap="round" stroke-linejoin="round" stroke-miterlimit="10" x1="97.4" y1="294.6" x2="97.2" y2="300.5"/>
	
		<line fill="#39B54A" stroke="#009245" stroke-width="3.5604" stroke-linecap="round" stroke-linejoin="round" stroke-miterlimit="10" x1="99.3" y1="315.2" x2="102.8" y2="322.2"/>
	
		<line fill="#39B54A" stroke="#009245" stroke-width="3.5604" stroke-linecap="round" stroke-linejoin="round" stroke-miterlimit="10" x1="91.6" y1="309" x2="87.7" y2="316"/>
	
		<line fill="#39B54A" stroke="#009245" stroke-width="3.5604" stroke-linecap="round" stroke-linejoin="round" stroke-miterlimit="10" x1="84.1" y1="290.1" x2="81.7" y2="298.8"/>
</g>
<rect x="83" y="211.1" fill="#FCC821" width="5" height="12"/>
<g>
	<path fill="#FCD221" d="M84.5,191.6c0.4-0.9,1.1-0.9,1.6,0l3.5,7c0.4,0.9,1.6,1.7,2.5,1.9l7.7,1.1c1,0.1,1.2,0.8,0.5,1.5l-5.6,5.5
		c-0.7,0.7-1.1,2-1,3l1.3,7.7c0.2,1-0.4,1.4-1.3,0.9l-6.9-3.6c-0.9-0.5-2.3-0.5-3.2,0l-6.9,3.6c-0.9,0.5-1.4,0-1.3-0.9l1.3-7.7
		c0.2-1-0.3-2.3-1-3l-5.6-5.5c-0.7-0.7-0.5-1.4,0.5-1.5l7.7-1.1c1-0.1,2.1-1,2.5-1.9L84.5,191.6z"/>
	
		<path fill="none" stroke="#FCE57E" stroke-width="1.7802" stroke-linecap="round" stroke-linejoin="round" stroke-miterlimit="10" d="
		M84.5,191.6c0.4-0.9,1.1-0.9,1.6,0l3.5,7c0.4,0.9,1.6,1.7,2.5,1.9l7.7,1.1c1,0.1,1.2,0.8,0.5,1.5l-5.6,5.5c-0.7,0.7-1.1,2-1,3
		l1.3,7.7c0.2,1-0.4,1.4-1.3,0.9l-6.9-3.6c-0.9-0.5-2.3-0.5-3.2,0l-6.9,3.6c-0.9,0.5-1.4,0-1.3-0.9l1.3-7.7c0.2-1-0.3-2.3-1-3
		l-5.6-5.5c-0.7-0.7-0.5-1.4,0.5-1.5l7.7-1.1c1-0.1,2.1-1,2.5-1.9L84.5,191.6z"/>
</g>
<g>
	<polygon fill="#F3FAFF" points="67.2,26 97.5,72.4 85,27.2 	"/>
</g>
<g>
	<polyline fill="#F3FAFF" points="263.6,78.7 265.3,89.4 237.5,114.1 263.2,78.8 	"/>
</g>
<g opacity="0.4">
	<polygon fill="#F3FAFF" points="48.8,0 0,187.9 0,93.7 	"/>
</g>
<g>
	<polygon fill="#F3FAFF" points="274.8,82.3 281.3,139.7 295.5,94.1 	"/>
</g>
<g>
	<polygon fill="#F3FAFF" points="161.7,76.8 164.7,102 145.9,94.7 	"/>
</g>
<g>
	<polygon fill="#F3FAFF" points="171.3,91.8 176.5,103.1 231,43.2 	"/>
</g>
<g>
	<path fill="#A67C52" d="M82.4,129.6c-2.8-2.9-6.8-2.8-8.8-2.6c1-1.6,1.4-3.6,0.9-5.7c-0.9-4.1-5-6.7-9.2-5.8
		c-4.1,0.9-6.7,5-5.8,9.2c0.4,1.9,1.5,3.5,3,4.5c-0.1,0.1-0.2,0.3-0.3,0.4c-0.8-0.2-1.8-0.7-2.9-1.4c-1.5-1-2.1-3.6-2.2-4.5
		c-0.1-1.5-1.5-2.6-3-2.5c-1.5,0.1-2.6,1.5-2.5,3c0.1,0.6,0.7,5.9,4.6,8.5c1.5,1,3,1.7,4.2,2.1c0,0.7,0,1.5,0.2,2.2l2.5,11.4
		c1.1,4.8,5.9,7.9,10.7,6.8l0.1,0c4.8-1.1,7.9-5.9,6.8-10.7l-2.5-11.2c0.1,0.1,0.2,0.1,0.2,0.2c1.7,1.8,2.2,4.6,2.2,4.6
		c0.2,1.5,1.7,2.5,3.2,2.3c0.1,0,0.1,0,0.2,0c1.4-0.3,2.3-1.7,2.1-3.1C86.1,136.8,85.3,132.6,82.4,129.6z"/>
	<path fill="#8C6239" d="M71.9,156.4c-4.6,0-8.7-3.3-9.7-7.8l-2.5-11.4c-0.1-0.5-0.2-1.1-0.2-1.7c-1.3-0.5-2.6-1.1-3.7-1.9
		c-4.3-2.9-4.9-8.6-5-9.3c-0.2-2.1,1.3-3.9,3.4-4.1c2.1-0.2,3.9,1.3,4.1,3.4c0.1,0.7,0.4,2,1,3c-0.2-0.5-0.4-1.1-0.6-1.7
		c-0.5-2.3-0.1-4.6,1.1-6.5c1.2-2,3.2-3.3,5.4-3.8c0.6-0.1,1.3-0.2,1.9-0.2c4,0,7.6,2.9,8.5,6.9c0.4,1.6,0.3,2.9-0.3,4.9
		c0,0,0,0,0,0c2.3,0,5.5,0.4,7.9,2.9c3.1,3.2,3.9,7.7,4,8.2c0.3,2-1,3.8-2.9,4.2c-0.1,0-0.4,0-0.4,0c-0.2,0-0.8,0-0.8,0v0
		c-1,0-1.7-0.4-2.4-1l1,3.8c0.6,2.6,0.2,5.3-1.3,7.5c-1.4,2.3-3.6,3.8-6.2,4.4l-0.1,0C73.3,156.4,72.6,156.4,71.9,156.4z
		 M54.4,122.3c-0.1,0-0.1,0-0.2,0c-1,0.1-1.7,1-1.6,1.9c0.1,0.5,0.6,5.4,4.1,7.8c1.2,0.8,2.5,1.5,3.9,1.9c0.4,0.1,0.7,0.5,0.7,1
		c0,0.7,0,1.3,0.2,2l2.5,11.4c0.8,3.6,4.1,6.2,7.8,6.2c0.6,0,1.2-0.1,1.7-0.2l0.1,0c2.1-0.5,3.8-1.7,5-3.5c1.1-1.8,1.5-3.9,1.1-6
		l-2.5-11.2c-0.1-0.4,0.1-0.8,0.4-1.1c0.4-0.2,0.8-0.2,1.2,0.1c0.1,0.1,0.2,0.2,0.3,0.3c1.9,1.9,2.5,4.8,2.5,5.2
		c0.2,1,1.1,1.6,2,1.5c0,0,0.1,0,0.1,0c0.9-0.2,1.5-1.1,1.3-2c-0.1-0.4-0.8-4.3-3.5-7.1c-1.9-2-4.6-2.4-6.4-2.4c-0.5,0-1,0-1.5,0.1
		c-0.4,0-0.8-0.1-1-0.5c-0.2-0.3-0.2-0.7,0-1.1c0.9-1.5,1.2-3.2,0.8-4.9c-0.7-3-3.4-5.2-6.5-5.2c-0.5,0-1,0.1-1.5,0.2
		c-1.7,0.4-3.2,1.4-4.2,2.9c-1,1.5-1.3,3.3-0.9,5c0.4,1.6,1.3,3,2.6,3.9c0.2,0.2,0.4,0.4,0.4,0.7c0,0.3-0.1,0.6-0.2,0.8l0,0.1
		c-0.1,0.1-0.2,0.2-0.3,0.3c-0.3,0.3-0.7,0.5-1.1,0.3c-1.1-0.3-2.2-0.9-3.2-1.5c-2.2-1.5-2.6-5.2-2.6-5.2
		C56.1,122.9,55.3,122.3,54.4,122.3z"/>
</g>
<g>
	<ellipse fill="#FFFFFF" cx="64.2" cy="122.3" rx="1.2" ry="1.2"/>
</g>
<g>
	<ellipse fill="#FFFFFF" cx="69.3" cy="120.8" rx="1.2" ry="1.2"/>
</g>
<g>
	<ellipse transform="matrix(0.9672 -0.2542 0.2542 0.9672 -29.566 21.3744)" fill="#FFFFFF" cx="67.9" cy="125.1" rx="1" ry="2.1"/>
</g>
<g>
	<path fill="#FFFFFF" d="M53.1,156.4c0,0,19.3-10.3,20.1-10.2c0.8,0.1,18.7,0.9,18.7,0.9l3,12.3L61,166L53.1,156.4z"/>
</g>
<g>
	<path fill="#FFFFFF" d="M55.3,153.2c0,0,15.8-14.9,36.4-7.2"/>
	<path fill="#E2F2FF" d="M55.3,155.5c-0.6,0-1.2-0.2-1.6-0.7c-0.9-0.9-0.8-2.3,0.1-3.2c0.7-0.6,17-15.8,38.7-7.7
		c1.2,0.4,1.8,1.7,1.3,2.9c-0.4,1.2-1.7,1.8-2.9,1.3c-19-7.1-33.4,6.2-34.1,6.8C56.4,155.3,55.8,155.5,55.3,155.5z"/>
</g>
<g>
	<path fill="#E6E6E6" d="M50.7,113.2c1.6,0.2,2.9,0.6,4.3,1.1c-0.5-1.4-0.9-3.2-0.7-4.6c0.3-1.9,3.8-6.7,0.2-12.8
		c-3-5.2-11.1-8.1-17.7-4c-6.6,4-6.5,12.1-5.2,15.8c1.3,3.8,5.7,6.4,9.7,6.3C47.9,114.7,47.2,112.8,50.7,113.2z"/>
	<path fill="#E6E6E6" d="M41.2,117.6c-5.3,0-10.5-3.5-12.1-8.1c0,0,0,0,0-0.1c-1.7-5-1.4-14.3,6.4-19c2.5-1.5,5.3-2.3,8.2-2.3
		c5.5,0,10.8,2.9,13.4,7.3c3.5,6,1.4,11.2,0.5,13.6c-0.1,0.3-0.3,0.8-0.4,1c-0.1,0.7,0.1,1.8,0.5,3.1c0.1,0.3,0.2,0.7,0.2,1.1
		c0,1.5-1.2,2.7-2.7,2.8c-0.3,0-0.6,0-0.9-0.1l-0.6-0.2c-1.1-0.4-2-0.7-3.1-0.8c-0.2,0-0.4,0-0.5,0c-0.5,0-0.8,0.1-1.4,0.4
		c-1.3,0.5-3,1.3-7.1,1.3C41.3,117.6,41.3,117.6,41.2,117.6z M34.2,107.6c0.9,2.5,4,4.4,6.9,4.4l0.1,0c3.1-0.1,4.2-0.5,5.1-0.9
		c0.9-0.4,1.9-0.8,3.5-0.8c0.3,0,0.7,0,1.1,0.1c0.2,0,0.3,0,0.5,0.1c0-0.4,0-0.8,0.1-1.2c0,0,0,0,0-0.1c0.1-0.7,0.4-1.4,0.7-2.1
		c0.9-2.2,2-5.2-0.1-8.9c-1.6-2.7-5-4.6-8.6-4.6c-1.9,0-3.7,0.5-5.3,1.5C32.7,98.5,33.5,105.4,34.2,107.6z"/>
</g>
<g>
	<g>
		<path fill="#754C24" d="M39.6,108.7l-0.9-3.8l-3.5-3.2c0,0,0-0.1-0.1-0.1c-0.1-0.2-0.1-0.4-0.2-0.5c-0.1-0.7,0.1-1.1,0.7-1.3
			c0.4-0.1,0.7,0,1,0.2l2.7,2.5l1.3-3.4c0.2-0.4,0.5-0.6,0.8-0.6c0.6-0.1,1.1,0.2,1.3,0.8c0.1,0.2,0,0.4-0.1,0.7l-1.8,4.4l0.9,3.8
			c0.1,0.6-0.2,1-0.8,1.2C40.2,109.5,39.8,109.3,39.6,108.7z"/>
	</g>
	<g>
		<path fill="#754C24" d="M46.9,99.9c2.3-0.3,3.8,0.7,4.6,3.1c0.4,2.5-0.5,4-2.8,4.7c-2.3,0.4-3.8-0.6-4.5-3
			C43.8,102.2,44.7,100.6,46.9,99.9z M47.4,101.8c-1,0.3-1.4,1.1-1.1,2.4c0.4,1.3,1.1,1.8,2.1,1.7c1-0.3,1.4-1.1,1.1-2.4
			C49.1,102.2,48.4,101.6,47.4,101.8z"/>
	</g>
</g>
</svg>
